<?xml version="1.0" standalone="no"?>
<!DOCTYPE svg PUBLIC "-//W3C//DTD SVG 20010904//EN"
 "http://www.w3.org/TR/2001/REC-SVG-20010904/DTD/svg10.dtd">
<svg version="1.0" xmlns="http://www.w3.org/2000/svg"
 width="640.000000pt" height="640.000000pt" viewBox="0 0 640.000000 640.000000"
 preserveAspectRatio="xMidYMid meet">
<metadata>
Created by potrace 1.14, written by Peter Selinger 2001-2017
</metadata>
<g transform="translate(0.000000,640.000000) scale(0.100000,-0.100000)"
fill="#000000" stroke="none">
<path d="M0 5960 l0 -440 40 0 c29 0 40 -4 40 -15 0 -8 4 -15 10 -15 5 0 7 7
4 15 -5 11 2 15 26 15 23 0 31 -4 27 -14 -4 -10 5 -12 41 -8 26 3 50 10 54 16
5 7 12 4 23 -9 14 -19 16 -19 29 -2 16 21 26 22 26 2 0 -11 11 -15 39 -15 22
0 44 6 51 15 18 21 37 19 45 -6 4 -11 12 -18 18 -16 7 2 27 -2 46 -9 22 -9 75
-14 157 -14 76 0 124 -4 124 -10 0 -5 -15 -10 -32 -11 l-33 0 33 -16 c17 -9
32 -20 32 -25 0 -4 11 -8 25 -8 28 0 29 3 15 30 -9 16 -6 18 30 13 32 -4 40
-2 40 10 0 16 20 27 50 27 10 0 27 11 38 25 24 30 42 32 42 5 0 -11 4 -20 9
-20 5 0 13 9 16 20 7 23 25 26 43 8 9 -9 12 -7 12 9 0 21 27 32 120 49 19 3
52 17 74 31 26 17 41 21 46 14 9 -15 118 33 142 63 10 11 18 15 18 9 0 -7 7
-13 16 -13 8 0 12 5 8 11 -4 7 5 10 27 8 19 -1 42 2 52 6 11 4 23 3 30 -4 18
-18 38 -13 64 17 20 23 25 25 33 12 8 -13 10 -13 10 2 0 17 15 22 108 33 28 4
52 10 52 14 0 10 68 33 79 26 10 -5 51 1 191 29 139 28 279 48 289 42 5 -4 13
-2 16 4 4 6 15 8 25 5 12 -4 22 1 29 12 6 10 11 12 11 6 0 -20 28 -15 52 9 14
14 23 18 26 10 5 -15 82 -16 82 -2 0 7 7 7 20 0 11 -6 26 -8 32 -4 6 4 34 6
61 5 35 -1 47 1 42 9 -6 9 -2 9 14 0 16 -8 31 -8 54 -1 20 7 73 9 137 5 139
-8 149 -9 160 -20 5 -5 13 -130 18 -279 l10 -270 -1 240 c0 132 0 267 1 300
l2 60 167 -5 168 -5 6 -45 c3 -25 7 -39 7 -32 1 6 9 12 17 12 9 0 15 9 15 23
0 16 3 18 9 9 4 -8 12 -13 17 -12 20 3 109 -13 138 -25 35 -14 177 -10 186 5
7 11 63 19 348 55 68 8 163 15 210 15 58 0 97 5 116 15 15 8 41 15 57 15 15 0
31 5 34 10 10 16 35 12 35 -6 0 -12 7 -14 33 -9 17 4 37 11 43 16 17 14 597
30 617 17 7 -5 2 -8 -12 -8 -13 0 -21 -3 -17 -7 10 -10 147 -24 215 -23 30 1
95 -9 144 -21 70 -17 91 -19 97 -9 4 7 13 9 19 6 6 -4 9 -11 6 -15 -2 -4 8 -7
23 -7 15 1 43 -6 62 -15 23 -11 54 -16 89 -14 32 2 69 -3 90 -12 24 -10 36
-12 39 -4 6 18 72 14 72 -4 0 -11 11 -15 40 -15 l40 0 0 270 0 270 -479 0
c-351 0 -480 -3 -483 -11 -3 -9 -9 -9 -24 -1 -14 7 -229 11 -687 12 -636 0
-669 0 -706 -19 -22 -10 -51 -16 -65 -14 -18 4 -26 1 -26 -8 0 -10 -3 -10 -8
-3 -8 13 -52 0 -52 -15 0 -24 -134 12 -160 44 -11 13 -58 15 -326 15 l-314 0
0 -40 c0 -22 4 -40 9 -40 5 0 12 -11 15 -25 4 -14 11 -25 16 -25 16 0 12 -76
-6 -91 -14 -11 -14 -13 1 -22 24 -13 0 -37 -36 -37 -16 0 -29 -4 -29 -10 0 -5
10 -10 23 -10 12 0 33 -7 45 -16 17 -12 37 -15 73 -11 45 5 49 4 49 -15 0 -35
-29 -47 -112 -48 -42 0 -79 -4 -82 -9 -9 -15 -146 -25 -159 -12 -14 14 -57 15
-57 1 0 -13 -117 -13 -125 -1 -3 6 18 8 52 6 32 -3 49 -2 38 1 -47 12 -50 15
-36 24 11 6 9 11 -8 21 -11 8 -21 19 -21 26 0 10 -49 12 -218 11 -183 -2 -221
0 -242 14 -33 21 -122 31 -242 29 -58 -2 -98 1 -98 7 0 5 -11 13 -25 16 -22 6
-25 12 -25 51 0 33 -4 45 -15 45 -8 0 -15 -7 -15 -16 0 -14 -3 -14 -15 -4 -9
8 -15 30 -15 56 0 42 1 44 30 44 28 0 30 2 30 40 l0 40 -935 0 -935 0 0 -440z
m5523 263 c-6 -14 -33 -18 -33 -5 0 12 8 19 24 19 8 0 12 -6 9 -14z m157 2 c0
-11 -12 -15 -49 -15 -31 0 -53 5 -61 15 -11 13 -5 15 49 15 48 0 61 -3 61 -15z
m-273 -3 c6 -4 11 -16 10 -26 -2 -22 49 -41 68 -26 7 6 15 7 19 3 4 -4 11 -1
16 7 8 13 13 12 32 -7 21 -22 21 -23 3 -43 -14 -15 -30 -20 -70 -20 -35 0 -57
-5 -65 -15 -8 -10 -31 -15 -71 -15 -32 0 -70 -5 -86 -11 -15 -6 -86 -13 -157
-14 -96 -2 -130 -6 -137 -16 -7 -11 -9 -10 -9 5 0 15 -5 17 -27 11 -52 -14
-352 -30 -388 -21 -20 5 -25 11 -20 26 4 13 2 20 -6 20 -10 0 -10 3 -1 12 8 8
15 8 27 -2 13 -10 15 -9 15 8 0 21 18 32 51 32 21 0 25 -20 7 -38 -9 -9 -8
-12 4 -12 11 0 18 10 20 28 3 25 6 27 53 28 102 2 107 3 101 19 -4 10 1 15 15
15 12 0 32 9 46 20 19 14 41 20 81 20 47 0 58 -4 81 -27 24 -26 26 -27 29 -8
7 34 21 37 202 39 66 1 75 -1 72 -16 -2 -10 2 -18 8 -18 5 0 10 9 10 19 0 24
42 39 67 23z m213 -76 c0 -6 -4 -17 -9 -25 -6 -9 -10 -4 -13 17 -3 22 -1 29 9
25 7 -3 13 -10 13 -17z m-2300 -66 c48 -16 51 -27 8 -34 -63 -9 -68 -6 -68 38
1 30 3 37 10 25 5 -8 27 -21 50 -29z m-655 -90 c-3 -5 -10 -10 -16 -10 -5 0
-9 5 -9 10 0 6 7 10 16 10 8 0 12 -4 9 -10z m-1785 -510 c0 -5 -2 -10 -4 -10
-3 0 -8 5 -11 10 -3 6 -1 10 4 10 6 0 11 -4 11 -10z m0 -30 c0 -5 -5 -10 -11
-10 -5 0 -7 5 -4 10 3 6 8 10 11 10 2 0 4 -4 4 -10z"/>
<path d="M4692 6123 c-15 -6 -6 -23 14 -23 8 0 14 7 14 15 0 15 -6 17 -28 8z"/>
<path d="M2880 6070 c0 -5 7 -7 15 -4 8 4 15 8 15 10 0 2 -7 4 -15 4 -8 0 -15
-4 -15 -10z"/>
<path d="M2880 6010 c0 -6 7 -10 15 -10 8 0 15 2 15 4 0 2 -7 6 -15 10 -8 3
-15 1 -15 -4z"/>
<path d="M6366 5493 c-9 -10 -157 -21 -351 -27 -88 -3 -182 -8 -209 -11 -27
-4 -182 -13 -345 -21 -163 -8 -366 -18 -451 -24 -85 -5 -258 -14 -384 -19
-126 -6 -230 -12 -232 -13 -1 -2 -5 -201 -8 -443 -3 -242 -9 -554 -12 -692 -5
-226 -4 -253 10 -253 9 0 16 8 16 18 0 18 16 19 242 25 133 4 301 7 375 7
l133 0 -4 -36 c-5 -41 -29 -63 -69 -64 -27 0 -77 -38 -77 -58 0 -5 -31 -29
-68 -54 -38 -25 -96 -71 -130 -103 -47 -43 -66 -55 -82 -50 -11 3 -20 10 -20
15 0 5 -20 23 -44 41 -26 18 -42 37 -39 44 2 8 -3 24 -11 38 -12 18 -23 23
-41 19 -18 -3 -39 6 -78 36 -62 48 -151 92 -186 93 -14 0 -35 4 -45 8 -12 4
-32 1 -53 -10 -41 -21 -49 -19 -103 31 -54 50 -123 78 -145 60 -21 -17 -60
-18 -117 -3 -58 16 -87 7 -123 -41 -27 -35 -29 -36 -96 -36 -65 0 -69 -1 -69
-22 0 -21 4 -23 49 -20 42 3 49 1 54 -17 3 -11 -3 -46 -13 -78 -12 -41 -19
-52 -23 -38 -4 16 -5 17 -6 3 -1 -12 -8 -17 -25 -16 -14 1 -22 7 -19 14 2 7 0
15 -6 19 -7 4 -11 -7 -11 -29 0 -35 1 -36 41 -36 40 0 41 0 34 -31 -7 -31 10
-115 26 -133 5 -6 9 -27 9 -47 l0 -38 -43 4 c-23 2 -51 7 -62 10 -18 6 -20 2
-17 -44 3 -34 0 -51 -8 -51 -8 0 -10 41 -5 155 l5 154 -25 7 c-18 4 -25 13
-25 30 0 14 -12 57 -27 96 -29 74 -87 146 -121 148 -9 0 -28 1 -42 2 l-25 0 3
653 2 652 -22 -3 c-63 -10 -864 -47 -1286 -61 -190 -5 -212 -8 -206 -22 4 -9
11 -50 14 -91 l7 -75 1 68 c2 63 15 89 25 50 4 -15 5 -15 6 -2 1 20 45 27 185
29 55 0 102 3 105 4 7 5 402 24 636 31 94 3 184 7 200 10 17 2 92 7 168 10
l137 7 2 -134 c1 -73 3 -160 4 -194 4 -111 3 -111 -84 -118 -43 -3 -327 -13
-632 -21 -305 -8 -600 -16 -655 -18 -93 -3 -100 -4 -97 -22 7 -47 8 -237 1
-241 -5 -2 -22 -48 -39 -101 -33 -104 -39 -168 -16 -176 16 -6 26 13 26 49 0
40 46 131 70 139 33 11 99 -5 126 -30 29 -27 32 -55 5 -55 -27 0 -30 -9 -21
-60 5 -25 7 -46 6 -48 -2 -1 -27 -4 -56 -5 -36 -3 -57 -9 -66 -21 -15 -21 -59
-46 -80 -46 -8 0 -14 7 -14 16 0 14 -2 14 -16 3 -11 -9 -53 -15 -120 -17 -88
-4 -104 -7 -105 -21 0 -9 0 -70 1 -136 l1 -121 -52 -34 c-28 -18 -58 -33 -65
-33 -7 0 -11 -4 -8 -8 11 -18 -35 -28 -87 -20 -38 6 -58 5 -68 -3 -12 -9 -12
-7 -2 13 7 13 9 21 3 17 -5 -3 -12 8 -14 24 -5 30 -4 30 46 31 28 1 59 1 69 0
22 -3 22 25 1 47 -9 9 -37 26 -62 38 l-46 22 65 -4 c51 -2 60 -1 44 8 -30 17
-30 17 -6 39 l23 21 -29 20 -28 19 33 -6 c32 -7 33 -6 23 14 -7 12 -18 21 -26
21 -8 0 -15 5 -15 10 0 6 -15 10 -33 10 -18 0 -43 7 -55 16 -13 9 -40 16 -60
17 -48 0 -69 15 -46 31 15 11 15 14 1 28 -14 13 0 16 135 21 82 4 153 9 157
12 4 2 6 18 3 36 l-5 32 -126 -6 c-69 -4 -342 -14 -606 -22 -264 -9 -517 -18
-562 -21 l-83 -6 0 -395 c0 -217 3 -393 8 -391 83 43 126 58 133 47 9 -16 -8
-52 -22 -44 -5 4 -9 -8 -9 -24 0 -40 -16 -40 -25 -1 -7 33 -18 36 -58 18 l-27
-13 0 -1737 0 -1738 1206 0 1206 0 -6 22 c-10 35 -82 336 -95 398 -7 30 -23
109 -37 175 -14 66 -43 206 -66 310 -71 336 -119 578 -129 655 -6 41 -24 127
-41 190 -31 118 -49 188 -99 394 -29 120 -38 223 -19 211 6 -3 10 -1 10 4 0 6
4 11 10 11 12 0 36 -57 54 -129 8 -31 35 -137 61 -236 26 -99 64 -252 85 -340
21 -88 49 -205 64 -260 29 -114 72 -308 121 -540 18 -88 42 -198 53 -245 11
-47 23 -103 26 -125 2 -22 23 -122 45 -221 23 -100 44 -202 47 -228 l7 -46
606 0 c586 0 612 1 791 25 350 46 415 55 500 69 47 8 110 17 140 21 59 7 286
51 437 84 90 20 232 63 265 81 9 5 45 16 80 25 139 36 254 91 388 185 14 9 59
32 100 50 41 17 92 45 112 61 97 76 292 156 403 166 l75 6 0 711 c0 773 4 707
-61 1101 -18 114 -61 469 -74 620 -3 39 -9 82 -11 98 -6 30 10 37 25 10 5 -10
14 -76 21 -148 6 -71 20 -191 30 -265 11 -74 24 -184 30 -245 11 -117 27 -215
35 -223 3 -3 5 335 5 751 l0 756 -28 15 c-42 22 -180 24 -212 4 -14 -9 -43
-21 -65 -28 -22 -7 -55 -23 -72 -37 -30 -22 -35 -22 -55 -9 -13 8 -72 35 -133
61 -104 43 -135 64 -135 90 0 9 76 14 272 19 242 7 273 6 284 -8 6 -9 18 -16
27 -16 9 0 18 -3 21 -8 2 -4 25 -6 50 -4 l46 4 0 739 c0 609 -2 739 -13 739
-8 0 -17 -3 -21 -7z m-346 -87 c0 -2 -7 -7 -16 -10 -8 -3 -12 -2 -9 4 6 10 25
14 25 6z m-256 -20 c-17 -13 -15 -14 21 -6 53 13 55 12 49 -5 -5 -12 2 -15 29
-15 20 0 39 -4 42 -10 3 -5 1 -10 -4 -10 -6 0 -11 -9 -11 -20 0 -11 -4 -20
-10 -20 -5 0 -10 -4 -10 -10 0 -5 13 -10 30 -10 20 0 28 4 24 13 -3 8 3 20 12
28 14 11 18 11 30 -6 8 -10 14 -25 14 -33 0 -7 5 -10 10 -7 6 4 10 -17 10 -54
0 -56 10 -76 25 -51 9 15 19 12 44 -11 17 -16 30 -20 56 -15 45 9 115 -3 115
-19 0 -8 8 -27 17 -43 15 -27 19 -28 30 -14 11 15 12 14 13 -10 0 -15 4 -38 9
-52 13 -32 -3 -45 -49 -43 -19 1 -105 -2 -190 -6 -85 -4 -245 -12 -355 -17
-110 -5 -337 -15 -505 -20 -168 -6 -381 -15 -475 -20 -93 -5 -207 -10 -253
-10 l-83 0 1 221 c1 160 5 221 13 224 7 2 80 6 162 9 83 4 265 11 405 17 140
6 350 12 465 15 116 2 235 8 265 13 30 5 59 9 64 10 6 0 1 -5 -10 -13z m164
-3 c-10 -2 -26 -2 -35 0 -10 3 -2 5 17 5 19 0 27 -2 18 -5z m251 -487 c-4 -4
-188 -11 -1199 -51 -206 -8 -419 -17 -472 -20 -62 -4 -98 -3 -98 3 0 16 89 20
945 46 286 9 543 18 570 19 81 5 259 7 254 3z m94 -23 c-7 -2 -19 -2 -25 0 -7
3 -2 5 12 5 14 0 19 -2 13 -5z m-633 -34 c-709 -33 -763 -37 -475 -32 159 3
215 1 203 -7 -9 -5 -31 -9 -48 -8 -30 3 -36 -2 -57 -41 -3 -5 -84 -9 -433 -21
-184 -6 -354 -12 -377 -15 l-43 -5 0 35 c0 33 2 35 38 37 l37 1 -37 4 c-169
18 220 41 1072 63 228 6 422 13 430 14 8 2 76 4 150 4 74 0 -133 -13 -460 -29z
m625 -10 c14 -6 7 -8 -25 -4 l-45 5 48 -16 c55 -20 61 -34 15 -34 -18 0 -173
-5 -345 -12 l-312 -12 -18 23 c-10 12 -34 26 -53 31 -30 7 -26 8 35 10 39 1
149 6 245 9 259 11 432 11 455 0z m-3035 -49 c0 -6 -41 -11 -97 -12 l-98 -2
100 -3 c73 -3 96 -7 85 -14 -11 -8 -12 -12 -2 -16 6 -2 12 -17 12 -33 l0 -28
-112 -6 c-146 -8 -652 -24 -1025 -32 l-293 -7 0 26 c0 34 -3 34 485 48 220 6
402 14 405 17 3 2 -100 2 -228 -2 -444 -14 -627 -16 -641 -7 -7 5 101 11 255
15 406 10 938 28 943 32 3 2 -155 2 -350 0 l-354 -5 250 10 c138 5 313 13 390
18 205 12 275 12 275 1z m2930 -30 c-167 -13 -535 -22 -527 -14 9 9 285 20
497 21 l125 0 -95 -7z m-3937 -7 c-34 -2 -93 -2 -130 0 -37 2 -9 3 62 3 72 0
102 -1 68 -3z m-365 -10 c-10 -2 -26 -2 -35 0 -10 3 -2 5 17 5 19 0 27 -2 18
-5z m3346 -13 c-6 -6 -89 -14 -185 -19 l-174 -9 172 2 c156 3 171 1 163 -13
-29 -49 -17 -47 -360 -59 -450 -17 -422 -18 -418 16 2 22 9 28 38 33 l35 6
-32 2 c-18 0 -33 5 -33 10 0 11 111 19 410 30 345 12 395 12 384 1z m1036 -1
c0 -5 0 -12 1 -16 0 -5 -10 -11 -23 -15 -16 -5 -10 -7 20 -5 23 1 42 0 42 -4
0 -3 -75 -9 -167 -13 -93 -3 -226 -9 -297 -13 -94 -4 -127 -3 -122 5 4 6 -2
20 -14 32 -11 11 -20 22 -20 24 0 2 93 5 207 5 114 1 209 4 211 5 8 9 162 4
162 -5z m-3019 -77 c-9 -3 -9 -8 2 -21 11 -11 12 -23 6 -39 -9 -23 -9 -23
-171 -20 -154 3 -164 4 -186 26 -12 12 -22 24 -22 26 0 3 17 7 38 9 48 5 -209
0 -603 -12 -170 -6 -348 -10 -395 -9 l-85 1 106 7 c58 5 287 13 510 20 222 7
490 15 594 19 176 6 239 4 206 -7z m2959 -2 c-217 -15 -482 -22 -476 -12 3 6
84 10 193 11 103 1 189 4 192 7 2 2 47 3 100 3 l96 -2 -105 -7z m-1030 -30 c0
-5 -3 -10 -7 -10 -5 0 -170 -7 -368 -15 -204 -8 -364 -10 -369 -5 -14 14 62
20 379 28 165 5 315 10 333 10 17 1 32 -2 32 -8z m1137 -5 c0 -8 -5 -15 -11
-15 -6 0 -3 -7 7 -14 20 -16 -34 -20 -395 -32 l-188 -6 0 26 c0 18 7 29 23 35
13 5 133 10 267 10 134 1 246 4 249 6 11 12 48 4 48 -10z m-3711 -29 l-39 -33
-271 -7 c-229 -6 -275 -5 -299 7 -27 14 -85 15 -144 2 -18 -4 -23 -1 -23 15 0
11 1 21 3 21 3 2 660 25 747 27 l65 1 -39 -33z m2988 28 c8 -3 12 -12 9 -21
-5 -13 -1 -15 20 -9 23 5 27 3 27 -16 0 -12 5 -49 11 -82 6 -34 16 -84 21
-113 5 -28 15 -53 22 -56 16 -6 18 21 4 49 -7 15 -7 28 0 40 8 15 11 12 17
-17 7 -29 9 -31 15 -14 7 20 18 20 299 24 l291 3 0 -25 c0 -33 -11 -35 -198
-37 -86 -1 -170 -3 -187 -4 -16 -2 -73 -4 -125 -5 -52 -1 -90 -5 -84 -9 7 -4
108 -5 226 -2 118 3 250 3 294 0 68 -4 55 -6 -90 -13 -93 -4 -234 -7 -313 -7
-97 0 -142 -3 -138 -10 5 -7 104 -8 309 -4 l303 7 -1 -24 c-1 -33 -19 -37
-208 -40 -310 -7 -473 -4 -472 6 1 6 4 22 7 36 6 24 2 27 -57 47 -70 24 -90
27 -81 12 8 -13 -11 -13 -36 0 -13 8 -25 7 -39 0 -11 -6 -37 -12 -56 -14 -39
-3 -73 -35 -75 -71 0 -11 -3 -14 -6 -7 -2 6 -8 10 -13 7 -4 -3 -7 3 -6 11 0 9
-7 18 -17 20 -16 2 -17 -3 -12 -50 3 -29 12 -77 19 -107 8 -29 12 -57 10 -61
-10 -16 -24 -7 -30 18 l-7 26 -221 -6 c-121 -3 -305 -9 -408 -12 l-188 -6 0
30 c0 21 6 32 18 36 9 2 191 8 405 12 226 4 387 11 387 16 0 5 -19 7 -42 4
-24 -3 -207 -7 -408 -10 -201 -2 -331 0 -290 4 41 4 140 8 220 9 269 2 520 14
520 24 0 6 -42 7 -112 4 -62 -4 -245 -10 -405 -13 l-293 -7 0 31 0 30 133 6
c72 3 242 10 377 15 l245 9 -300 -4 c-165 -2 -336 -7 -380 -10 -55 -5 -77 -3
-70 4 6 6 150 15 375 22 201 6 367 14 370 17 3 2 -165 1 -372 -3 l-378 -7 0
30 0 30 190 7 c105 3 276 9 382 13 143 4 189 3 184 -5 -4 -7 -1 -12 8 -12 11
0 13 -8 9 -35 -3 -20 -1 -35 4 -35 6 0 14 24 18 53 5 28 9 55 10 60 2 4 3 10
4 15 1 4 6 -1 12 -10 5 -10 15 -18 20 -18 6 0 17 -6 25 -14 24 -25 75 -11 109
29 17 19 35 35 40 35 6 0 22 -14 36 -31 20 -25 34 -32 65 -33 31 -1 41 3 49
22 5 12 18 22 27 22 14 0 18 8 18 34 0 51 -17 59 -107 53 -89 -7 -169 -15
-198 -21 -11 -3 -28 -5 -37 -5 -9 -1 -23 -8 -31 -16 -13 -12 -15 -11 -19 15
-3 17 -1 30 3 30 4 0 5 8 3 18 -6 22 48 47 96 44 161 -11 171 -11 169 1 -6 37
31 58 75 41z m-419 -46 l-2 -33 -294 -12 c-162 -6 -329 -11 -371 -12 l-78 -1
0 30 c0 26 4 30 28 31 15 0 167 7 337 13 171 7 326 14 346 15 35 1 37 0 34
-31z m-1925 -18 c0 -6 -29 -11 -67 -12 l-68 -2 75 -5 c72 -6 75 -7 75 -31 0
-25 -1 -25 -123 -33 -68 -5 -129 -6 -137 -3 -10 4 -12 13 -5 35 6 22 5 31 -6
35 -41 16 -1 24 121 25 87 1 135 -2 135 -9z m2985 -10 c-57 -11 -511 -23 -502
-13 7 7 205 15 462 19 62 1 71 0 40 -6z m-3675 -5 c0 -3 -10 -10 -22 -15 -18
-7 -19 -9 -5 -9 12 -1 17 -9 17 -31 l0 -30 -142 0 c-79 0 -173 -3 -210 -7 -63
-5 -68 -4 -68 14 0 10 -5 24 -12 31 -15 15 -30 13 202 22 l195 7 -200 1 c-256
1 -289 5 -100 12 231 9 345 11 345 5z m2610 -24 c0 -9 -99 -14 -520 -30 -119
-5 -158 -8 -100 -9 52 -1 214 3 359 8 145 6 264 10 266 8 1 -2 5 -17 8 -34 l6
-31 -272 -7 c-150 -3 -320 -9 -379 -12 l-108 -7 0 31 c0 17 6 33 13 35 9 4 9
8 -2 16 -25 16 15 20 334 29 165 5 321 9 348 10 26 1 47 -2 47 -7z m1152 4 c3
-3 3 -16 1 -29 -5 -23 -10 -25 -97 -30 -50 -3 -184 -8 -298 -12 l-208 -6 0 30
c0 27 4 30 38 34 20 3 145 6 277 7 132 1 242 4 244 7 6 6 37 5 43 -1z m-3074
-65 c9 -2 -10 -6 -43 -10 l-60 -7 58 -1 c43 -2 57 -6 58 -17 1 -8 2 -21 3 -27
2 -20 -31 -26 -156 -27 l-118 -1 0 30 0 30 68 2 67 2 -67 3 c-38 2 -68 8 -68
13 0 12 197 20 258 10z m-684 -20 c-13 -13 -396 -26 -420 -14 -13 6 18 11 96
14 210 11 335 11 324 0z m3756 -2 c0 -4 -26 -8 -57 -8 -32 0 -164 -3 -293 -6
-135 -4 -231 -3 -227 2 5 5 99 11 210 14 299 7 367 7 367 -2z m-3612 -28 c2
-14 9 -31 15 -39 9 -10 7 -16 -8 -27 -10 -8 -26 -14 -35 -14 -21 0 -62 -38
-57 -53 2 -7 13 -13 25 -15 12 -2 20 -8 16 -13 -3 -6 2 -20 12 -32 11 -12 15
-19 10 -15 -5 4 -15 1 -23 -7 -23 -24 -43 -18 -45 13 -2 39 -3 46 -9 57 -8 14
-4 55 10 88 6 16 11 35 11 42 0 18 40 46 60 43 8 -2 17 -14 18 -28z m-148 -20
l0 -30 -97 -2 c-54 0 -147 -2 -207 -2 l-109 -1 -8 27 -7 27 146 4 c81 1 177 4
215 5 l67 2 0 -30z m2630 22 c0 -5 -102 -12 -227 -16 -126 -3 -298 -9 -383
-12 -112 -5 -152 -4 -145 4 7 8 117 15 315 20 442 13 440 13 440 4z m-3093
-68 c14 -31 -3 -29 -25 4 -12 18 -12 22 -1 22 8 0 19 -12 26 -26z m1138 6
c-19 -7 -18 -8 6 -15 23 -6 26 -10 20 -33 l-7 -27 -135 0 -134 0 -3 28 -3 27
93 2 93 2 -87 3 c-140 6 -104 23 45 22 78 0 124 -4 112 -9z m-675 -11 c0 -6
-232 -19 -347 -19 -35 0 -63 4 -63 10 0 6 70 11 178 12 97 2 189 3 205 3 15 1
27 -2 27 -6z m8 -46 c-3 -27 -6 -28 -68 -34 -36 -4 -129 -7 -207 -8 l-143 -1
0 30 0 29 138 4 c75 1 170 4 210 5 l73 2 -3 -27z m-454 -58 c3 -39 1 -77 -4
-85 -10 -16 -13 -11 -24 41 -3 15 -15 29 -26 32 -26 7 -16 35 16 43 16 4 24
13 24 27 0 45 9 7 14 -58z m3298 55 c11 0 18 -5 16 -12 -7 -20 -42 -36 -66
-29 l-24 6 23 29 c13 16 25 24 27 18 2 -7 13 -12 24 -12z m123 0 c6 -20 0 -40
-14 -40 -4 0 -16 6 -27 14 -19 15 -19 15 1 30 27 20 32 20 40 -4z m-2761 -44
c-3 -14 -11 -26 -18 -27 -6 -1 0 -5 14 -9 24 -8 23 -8 -8 -9 -22 -1 -31 3 -26
10 3 6 0 15 -7 20 -11 7 -10 9 3 9 10 0 22 9 28 21 15 27 23 19 14 -15z
m-1921 17 c26 -4 36 -10 33 -19 -3 -9 1 -14 12 -14 15 -1 15 -2 -2 -15 -11 -8
-30 -15 -42 -15 -12 0 -27 -7 -34 -15 -6 -8 -21 -17 -31 -20 -29 -10 -88 -72
-95 -101 -5 -18 -11 -23 -23 -19 -9 4 -33 9 -53 12 -21 3 -38 10 -38 16 0 5
-8 16 -17 23 -16 11 -13 12 17 5 20 -4 45 -13 57 -19 34 -19 49 -15 29 7 -9
10 -38 22 -63 26 -85 13 -454 108 -482 125 -11 6 12 10 69 11 47 1 155 5 240
9 220 9 379 11 423 3z m2113 -24 c1 -22 -2 -29 -13 -25 -8 4 -21 6 -29 6 -22
0 -16 14 14 32 15 9 27 17 27 17 0 1 0 -13 1 -30z m289 11 c-4 -6 -59 -9 -138
-9 -88 1 -119 4 -92 9 64 11 237 11 230 0z m-835 -21 c-258 -13 -275 -17 -62
-13 111 2 202 0 202 -4 0 -4 3 -18 7 -32 5 -21 4 -23 -8 -13 -11 9 -74 13
-211 13 -190 1 -196 2 -202 22 -3 12 -3 25 0 30 3 4 101 7 217 7 l212 -2 -155
-8z m-515 -9 c-3 -5 -1 -10 6 -10 7 0 10 -2 7 -5 -8 -9 -38 6 -32 16 3 5 10 9
15 9 6 0 7 -4 4 -10z m1360 -20 l0 -25 -137 -3 -138 -3 0 31 0 31 138 -3 137
-3 0 -25z m-2205 10 c0 -5 -15 -10 -32 -9 -31 1 -32 1 -8 9 35 11 40 11 40 0z
m4487 4 c-3 -3 -12 -4 -19 -1 -8 3 -5 6 6 6 11 1 17 -2 13 -5z m688 -4 c-131
-12 -597 -18 -588 -9 9 9 143 13 468 15 163 1 190 0 120 -6z m-6129 -19 c-2
-3 18 -7 46 -9 27 -2 61 -7 74 -13 14 -5 37 -9 50 -9 24 0 31 -24 8 -26 -5 0
-17 -4 -26 -8 -10 -5 -25 -5 -33 -2 -10 4 -19 -2 -25 -17 -5 -12 -9 -17 -10
-12 0 6 -3 6 -8 0 -4 -6 -18 -17 -32 -26 -23 -14 -27 -13 -46 7 -12 13 -20 25
-17 28 3 3 -2 17 -11 31 -21 33 -12 75 15 68 10 -3 17 -8 15 -12z m968 -17 c3
-8 2 -12 -4 -9 -6 3 -10 10 -10 16 0 14 7 11 14 -7z m5254 -1 c2 -7 -1 -13 -8
-13 -6 0 -8 5 -5 10 8 13 -70 13 -95 0 -11 -6 -17 -17 -14 -25 5 -13 -13 -15
-122 -16 -71 -1 -201 -4 -290 -8 l-161 -6 1 30 1 30 205 5 c333 9 483 7 488
-7z m-4418 -13 c0 -5 -2 -10 -4 -10 -3 0 -8 5 -11 10 -3 6 -1 10 4 10 6 0 11
-4 11 -10z m834 -5 c-4 -8 -12 -15 -20 -15 -8 0 -11 6 -8 15 4 8 12 15 20 15
8 0 11 -6 8 -15z m3546 11 c0 -2 -7 -7 -16 -10 -8 -3 -12 -2 -9 4 6 10 25 14
25 6z m-3032 -20 c3 -3 -3 -6 -14 -6 -18 -1 -18 -1 -1 -11 9 -5 17 -21 17 -34
0 -22 -4 -25 -40 -25 -48 0 -55 -20 -7 -21 l32 -1 -27 -11 c-16 -6 -28 -15
-28 -19 0 -15 -55 5 -91 33 -20 16 -42 29 -48 29 -7 0 -14 7 -18 16 -4 11 -13
14 -29 10 -23 -6 -26 -3 -28 27 -1 18 264 30 282 13z m-1118 -16 c0 -5 -4 -10
-10 -10 -5 0 -10 5 -10 10 0 6 5 10 10 10 6 0 10 -4 10 -10z m668 -27 c-10 -2
-26 -2 -35 0 -10 3 -2 5 17 5 19 0 27 -2 18 -5z m3437 -4 c-22 -4 -155 -7
-295 -6 l-255 1 230 6 c373 9 366 9 320 -1z m72 5 c-3 -3 -12 -4 -19 -1 -8 3
-5 6 6 6 11 1 17 -2 13 -5z m-3757 -19 c0 -11 -41 -25 -53 -18 -8 5 -4 9 13
14 33 9 40 10 40 4z m2655 -4 c-12 -11 -792 -25 -781 -14 4 4 103 11 219 14
362 9 572 9 562 0z m-4178 -23 c11 -13 24 -34 28 -47 4 -13 18 -33 30 -45 28
-25 80 -124 71 -133 -3 -4 -6 -1 -6 6 0 8 -5 9 -19 1 -25 -13 -84 -13 -76 0 3
6 -3 10 -14 10 -12 0 -21 -6 -21 -13 0 -9 -10 -12 -31 -9 -38 6 -26 19 26 30
25 5 40 14 40 22 0 8 4 18 9 22 18 13 -12 56 -48 69 -33 12 -41 20 -37 42 0 4
-8 16 -19 27 -29 29 -25 40 13 40 22 0 41 -8 54 -22z m4592 -102 c-9 -8 -10
-5 -5 16 4 16 2 28 -6 30 -7 3 -8 16 -3 43 l8 40 9 -59 c7 -43 6 -62 -3 -70z
m691 114 c0 -5 -4 -10 -10 -10 -5 0 -10 5 -10 10 0 6 5 10 10 10 6 0 10 -4 10
-10z m-4521 -40 c11 -5 47 -10 80 -10 33 0 62 -4 65 -9 3 -4 1 -23 -4 -41 -11
-39 -7 -48 15 -30 11 9 15 9 15 1 0 -7 4 -10 8 -7 5 3 19 -17 32 -44 16 -35
21 -59 17 -85 -4 -26 -2 -38 9 -42 18 -7 18 -43 -1 -43 -8 0 -19 9 -25 20 -7
13 -21 20 -40 20 -43 0 -43 13 -1 56 30 32 36 44 30 61 -11 30 -44 46 -81 38
-17 -4 -28 -3 -25 1 3 5 -21 9 -53 9 -32 0 -56 -3 -53 -8 2 -4 -13 -5 -34 -2
-42 6 -52 2 -71 -33 -13 -23 -9 -42 9 -42 6 0 17 -7 25 -15 26 -25 71 -18 101
15 31 35 39 31 49 -26 l6 -41 -41 -10 c-33 -9 -41 -8 -41 3 0 16 -26 19 -35 4
-3 -5 -13 -10 -22 -10 -9 0 -27 -9 -39 -21 -18 -17 -21 -28 -17 -57 4 -25 3
-33 -5 -28 -7 4 -12 15 -12 24 0 31 -16 45 -36 34 -17 -9 -23 -4 -42 29 -24
42 -22 89 5 89 12 0 13 -3 3 -14 -16 -20 -9 -58 9 -47 7 5 16 38 21 78 4 38
12 78 18 88 6 11 14 37 17 57 9 56 25 67 80 57 25 -5 54 -13 64 -19z m-598
-10 c10 0 19 -4 19 -10 0 -15 -45 5 -46 21 -1 9 0 10 3 2 3 -7 13 -13 24 -13z
m4071 -5 c-2 -14 1 -32 8 -40 7 -9 10 -18 7 -21 -12 -12 -39 46 -33 71 8 33
25 24 18 -10z m-4388 13 c-5 -7 -2 -10 7 -7 8 3 27 -7 43 -22 l28 -27 -43 -15
c-135 -47 -169 -55 -169 -41 0 8 -4 14 -10 14 -5 0 -10 11 -10 24 0 14 5 28
10 31 6 3 10 15 10 25 0 24 13 28 83 29 42 1 56 -2 51 -11z m4416 -23 c0 -8
-4 -15 -10 -15 -5 0 -10 7 -10 15 0 8 5 15 10 15 6 0 10 -7 10 -15z m-5035 -8
c11 0 27 3 36 7 9 4 24 -1 38 -13 22 -19 22 -20 2 -30 -11 -6 -26 -11 -35 -11
-19 0 -29 -16 -30 -49 -1 -25 -5 -26 -79 -36 -49 -6 -82 -16 -88 -25 -7 -10
-8 7 -4 54 7 92 30 118 95 109 25 -3 54 -6 65 -6z m3368 -24 c-7 -2 -19 -2
-25 0 -7 3 -2 5 12 5 14 0 19 -2 13 -5z m72 -3 c3 -5 -1 -10 -9 -10 -8 0 -18
5 -21 10 -3 6 1 10 9 10 8 0 18 -4 21 -10z m138 4 c22 -4 37 -12 37 -21 0 -8
4 -12 9 -8 5 3 9 -8 9 -23 -1 -16 2 -34 5 -39 4 -6 -7 -13 -26 -17 -56 -11
-61 -19 -42 -57 10 -19 23 -38 29 -42 6 -5 2 -7 -12 -4 -16 4 -27 -1 -38 -19
-10 -15 -26 -24 -41 -24 -14 0 -38 -9 -54 -21 l-29 -20 0 25 c0 38 10 56 32
56 10 0 16 -4 13 -10 -10 -17 4 -11 25 10 12 12 25 18 29 15 11 -6 21 18 21
51 0 26 -33 41 -69 29 -26 -8 -27 10 -6 63 25 59 40 67 108 56z m-3428 -14 c4
-6 -5 -10 -19 -10 -14 0 -26 5 -26 10 0 6 9 10 19 10 11 0 23 -4 26 -10z
m2923 -18 c7 -9 11 -11 7 -4 -10 20 3 14 35 -18 43 -42 39 -56 -16 -63 -37 -4
-50 -1 -65 14 -13 13 -33 19 -65 19 l-46 0 24 29 c42 52 94 62 126 23z m1982
24 c0 -3 -4 -8 -10 -11 -5 -3 -10 -1 -10 4 0 6 5 11 10 11 6 0 10 -2 10 -4z
m-1260 -16 c0 -5 -5 -10 -11 -10 -5 0 -7 5 -4 10 3 6 8 10 11 10 2 0 4 -4 4
-10z m1552 -109 c-21 -28 -90 -45 -127 -30 l-20 8 20 2 c11 1 23 1 28 0 4 0 7
4 7 9 0 6 7 10 15 10 9 0 18 7 21 15 4 8 17 15 29 15 16 0 26 8 31 23 l8 22 4
-24 c2 -13 -5 -35 -16 -50z m-5002 47 c0 6 12 12 27 12 14 0 23 -3 20 -7 -4
-3 0 -15 10 -25 15 -17 14 -18 -32 -13 -56 5 -60 8 -51 32 6 15 8 15 16 3 7
-10 10 -11 10 -2z m317 -33 c9 -19 23 -35 30 -35 8 0 11 -5 8 -11 -4 -6 -9 -8
-12 -5 -3 3 -21 -1 -39 -9 -22 -9 -36 -10 -40 -4 -4 7 -14 3 -28 -8 -11 -11
-33 -24 -48 -31 -24 -10 -29 -9 -38 8 -5 10 -10 28 -10 39 0 22 9 24 66 21 33
-1 74 30 74 57 0 25 20 13 37 -22z m659 9 c18 -14 18 -14 -6 -3 -31 14 -36 19
-24 19 6 0 19 -7 30 -16z m1649 -4 c3 -6 -5 -10 -19 -10 -28 0 -43 -17 -29
-31 5 -5 27 -12 48 -16 32 -5 40 -2 55 17 25 34 47 21 42 -24 l-4 -36 -53 2
c-70 3 -108 -21 -101 -63 6 -37 -28 -83 -44 -59 -33 50 4 200 55 221 28 11 43
11 50 -1z m2921 -15 c16 -8 37 -12 46 -9 11 3 21 -3 29 -17 10 -20 12 -20 21
-6 7 14 12 15 28 4 25 -15 26 -39 3 -35 -18 3 -26 -31 -10 -43 5 -4 7 -14 5
-23 -3 -15 -6 -14 -39 3 -28 15 -44 18 -70 11 -44 -10 -69 -20 -70 -29 -4 -41
-9 -63 -17 -78 -7 -12 -6 -24 5 -39 14 -22 14 -23 -24 -24 -65 -2 -83 -4 -83
-10 0 -4 -6 -7 -14 -7 -10 0 -14 9 -11 28 5 43 14 51 53 47 34 -3 38 0 49 32
10 32 10 37 -10 53 -12 11 -31 17 -44 14 -27 -5 -29 9 -9 58 33 78 95 105 162
70z m-4949 -29 c-4 -9 -13 -13 -22 -10 -14 6 -13 8 2 19 21 16 28 12 20 -9z
m3078 -6 c3 -5 19 -7 34 -4 16 4 32 1 35 -5 10 -15 37 -14 34 2 -4 16 52 18
74 2 10 -6 15 -15 10 -20 -4 -4 1 -5 11 -2 12 5 16 3 11 -5 -5 -8 -2 -9 11 -4
15 5 16 4 6 -8 -28 -34 -211 -61 -211 -32 0 8 7 22 16 31 15 15 14 15 -12 10
-16 -4 -34 -8 -41 -10 -15 -5 -47 31 -38 44 8 14 52 14 60 1z m-3605 -9 c0 -6
-4 -13 -10 -16 -5 -3 -10 1 -10 9 0 9 5 16 10 16 6 0 10 -4 10 -9z m24 -6 c-4
-11 -2 -13 9 -9 8 3 18 1 21 -5 7 -11 -22 -76 -30 -68 -3 3 0 14 8 26 11 18
10 22 -6 34 -11 8 -16 19 -12 25 10 17 16 15 10 -3z m-74 -5 c18 -12 2 -12
-25 0 -13 6 -15 9 -5 9 8 0 22 -4 30 -9z m2087 -5 c15 -8 43 -20 61 -27 28
-11 32 -17 30 -45 -1 -17 4 -38 11 -47 11 -13 7 -15 -34 -14 -25 0 -51 -4 -57
-10 -7 -7 -10 -39 -9 -77 2 -48 -1 -65 -11 -66 -7 -1 -25 -3 -40 -5 -19 -2
-28 2 -28 11 0 10 -14 4 -44 -18 -25 -17 -45 -39 -45 -47 1 -11 2 -12 6 -2 4
10 9 8 20 -7 9 -14 25 -21 46 -21 18 0 43 -3 57 -7 24 -7 24 -8 -7 -13 -45 -7
-29 -30 26 -37 59 -8 36 -33 -30 -33 -41 0 -51 4 -65 25 -8 13 -13 29 -10 34
4 5 2 12 -4 16 -5 3 -10 1 -10 -5 0 -21 -41 11 -52 41 -6 17 -17 29 -28 29
-10 0 -21 8 -24 17 -8 19 15 38 25 21 4 -6 7 0 7 13 0 13 5 44 11 69 6 25 15
69 21 98 10 56 30 81 85 107 39 18 57 18 92 0z m-2581 -10 c4 -9 19 -15 36
-15 19 0 28 -4 25 -12 -2 -8 -19 -13 -41 -12 -35 1 -46 -11 -27 -31 6 -6 4
-15 -5 -23 -13 -12 -15 -6 -12 47 3 59 12 77 24 46z m124 -10 c0 -17 -35 -55
-50 -55 -15 0 -12 7 12 40 24 33 38 38 38 15z m1080 -16 c0 -5 -4 -9 -10 -9
-5 0 -17 -27 -27 -60 -15 -54 -33 -80 -33 -47 0 8 -4 7 -10 -3 -8 -13 -10 -13
-10 1 0 9 6 19 14 22 19 8 40 81 25 86 -8 2 -8 5 -1 10 17 11 52 11 52 0z
m2612 -11 c-5 -19 -37 -25 -47 -8 -10 16 4 30 29 28 17 -2 22 -7 18 -20z
m-3048 6 c18 -7 12 -24 -10 -24 -8 0 -14 7 -14 15 0 17 2 18 24 9z m462 -21
c-10 -10 -19 5 -10 18 6 11 8 11 12 0 2 -7 1 -15 -2 -18z m1924 8 c0 -10 -24
-21 -46 -21 -12 0 -13 3 -2 15 14 16 48 20 48 6z m-1382 -13 c-2 -6 -10 -14
-16 -16 -7 -2 -10 2 -6 12 7 18 28 22 22 4z m-63 -8 c17 -7 15 -9 -12 -9 -18
-1 -33 4 -33 9 0 12 17 12 45 0z m2455 -4 c0 -16 -14 -36 -25 -36 -17 0 -27
27 -12 34 16 6 37 7 37 2z m-1003 -29 c4 -6 -2 -8 -18 -4 -13 4 -28 7 -32 7
-5 0 -6 4 -3 9 7 11 44 3 53 -12z m509 -8 c3 -5 -6 -9 -20 -9 -16 0 -26 6 -26
14 0 15 36 11 46 -5z m650 -14 c8 -19 20 -35 27 -36 6 0 1 -5 -12 -10 -30 -12
-31 -10 -38 40 -7 50 3 53 23 6z m1561 29 c-3 -3 -12 -4 -19 -1 -8 3 -5 6 6 6
11 1 17 -2 13 -5z m-5794 -18 c7 -18 -22 -31 -37 -16 -7 7 -6 10 3 10 7 0 9 5
6 10 -3 6 0 10 8 10 8 0 17 -6 20 -14z m517 12 c0 -2 -17 -19 -37 -38 -34 -32
-32 -23 6 23 12 14 31 23 31 15z m1134 -8 c-6 -6 -21 -6 -39 -1 -30 9 -30 9
10 10 25 1 36 -2 29 -9z m2730 -23 c4 4 4 0 0 -10 -6 -16 -8 -16 -35 0 -27 16
-28 19 -12 30 15 11 19 10 28 -7 6 -11 14 -17 19 -13z m-1344 16 c0 -3 -7 -14
-16 -24 -14 -16 -14 -18 5 -24 27 -8 17 -25 -13 -25 -32 0 -50 24 -42 55 5 20
13 25 36 25 17 0 30 -3 30 -7z m-2310 -33 c0 -5 -4 -10 -10 -10 -5 0 -10 5
-10 10 0 6 5 10 10 10 6 0 10 -4 10 -10z m1225 0 c3 -5 1 -10 -5 -10 -6 0 -18
-7 -27 -16 -9 -8 -22 -13 -30 -10 -8 3 -21 6 -29 6 -8 0 -11 6 -8 15 5 12 10
12 27 3 17 -9 23 -8 32 6 11 18 31 21 40 6z m1675 1 c0 -11 -25 -21 -51 -21
-26 0 -24 18 4 23 39 8 47 7 47 -2z m2365 -11 c3 -5 12 -10 18 -10 7 0 6 4 -3
10 -9 6 -10 10 -3 10 22 0 26 -23 7 -37 -16 -12 -15 -13 14 -7 38 8 42 -7 8
-29 -61 -40 -469 -201 -726 -287 -157 -52 -280 -90 -549 -170 -180 -53 -228
-66 -1006 -280 -258 -71 -521 -145 -582 -163 -62 -19 -113 -31 -113 -26 0 16
254 95 695 217 263 73 556 155 630 176 44 13 139 41 210 61 275 79 442 131
770 240 328 108 416 141 423 158 2 4 10 7 18 7 9 0 13 3 11 8 -3 4 8 8 24 9
46 3 92 31 84 51 -8 20 -8 21 -6 44 1 10 12 18 29 21 15 2 30 5 34 6 4 0 10
-3 13 -9z m-4359 -21 c39 0 52 -3 48 -13 -6 -16 -112 -20 -131 -5 -20 17 -15
31 8 24 12 -4 45 -7 75 -6z m1956 -35 c12 -3 28 -12 35 -19 10 -11 5 -15 -28
-20 -47 -8 -65 8 -67 58 -1 29 -1 29 18 9 11 -11 29 -24 42 -28z m-3542 32 c0
-9 -39 -13 -51 -5 -10 6 -4 9 19 9 17 0 32 -2 32 -4z m4093 -13 c9 -8 -22 -43
-38 -43 -18 0 -26 25 -12 39 12 12 40 15 50 4z m-2308 -45 c6 -6 6 -11 -1 -16
-6 -4 -16 -16 -22 -27 -10 -18 -11 -16 -12 17 0 20 -6 39 -12 42 -7 3 -2 3 12
0 14 -4 29 -10 35 -16z m-326 -25 c6 -21 11 -45 11 -53 -1 -23 -21 16 -30 57
-11 46 7 42 19 -4z m1099 11 c6 -2 12 -14 12 -28 0 -53 -66 -29 -84 31 -7 20
-5 21 26 11 18 -6 39 -12 46 -14z m1693 -4 c-13 -11 -28 -20 -35 -20 -6 1 0
10 13 20 13 11 28 20 35 20 6 -1 0 -10 -13 -20z m-841 -30 c-8 -5 -19 -10 -25
-10 -5 0 -3 5 5 10 8 5 20 10 25 10 6 0 3 -5 -5 -10z m-1002 -42 c2 -10 -6
-15 -28 -16 -31 -1 -35 4 -24 32 7 18 48 6 52 -16z m3005 18 c9 5 9 4 0 -6
-13 -15 -37 -4 -26 13 5 8 8 8 11 -1 2 -7 9 -9 15 -6z m47 -12 c0 -8 -5 -12
-10 -9 -6 4 -8 11 -5 16 9 14 15 11 15 -7z m60 -10 c0 -8 -5 -12 -10 -9 -6 4
-8 11 -5 16 9 14 15 11 15 -7z m-2890 -4 c0 -5 -5 -10 -11 -10 -5 0 -7 5 -4
10 3 6 8 10 11 10 2 0 4 -4 4 -10z m480 -56 c0 -2 -9 0 -20 6 -11 6 -20 13
-20 16 0 2 9 0 20 -6 11 -6 20 -13 20 -16z m-2358 -20 c9 -3 20 -18 23 -34 4
-20 13 -30 25 -30 10 0 22 -4 25 -10 3 -5 1 -10 -4 -10 -6 0 -11 -6 -11 -13 0
-9 -21 -13 -72 -15 -99 -3 -148 -12 -149 -25 -4 -48 -2 -52 31 -69 49 -25 77
-22 112 12 16 17 31 30 33 30 1 0 5 -18 7 -39 3 -37 1 -40 -33 -55 -41 -19
-53 -20 -44 -6 14 22 -34 8 -58 -17 -14 -16 -36 -35 -49 -45 -23 -16 -23 -16
-5 -47 10 -17 15 -36 12 -41 -11 -17 -33 -11 -40 10 -5 14 -14 20 -28 18 -32
-4 -36 52 -6 93 22 31 22 32 3 46 -18 15 -18 15 2 9 17 -5 23 0 33 31 6 21 13
62 15 92 2 51 6 57 47 93 45 39 62 42 131 22z m824 -1 c14 2 24 -1 24 -7 0 -6
5 -4 10 4 15 23 12 5 -6 -40 l-16 -41 -35 21 c-39 23 -57 26 -50 8 2 -7 7 -24
11 -38 4 -20 3 -19 -8 5 -11 24 -12 38 -3 67 10 31 14 35 30 26 11 -5 30 -8
43 -5z m1499 -29 c38 -25 74 -62 75 -76 0 -4 -14 -5 -31 -1 -36 7 -80 -14 -77
-36 2 -9 -3 -16 -9 -15 -7 1 -21 2 -32 3 -11 0 -18 8 -17 18 2 26 -39 28 -78
3 l-34 -21 2 23 c3 29 50 103 73 117 32 19 88 12 128 -15z m-2924 -71 l24 -26
-25 16 c-27 19 -44 22 -35 7 3 -6 -1 -7 -9 -4 -9 3 -16 12 -16 20 0 23 35 16
61 -13z m2156 -32 c-3 -10 -5 -7 -6 7 0 13 -5 20 -11 17 -11 -7 -14 18 -3 29
9 9 25 -33 20 -53z m2357 33 c18 -18 21 -40 6 -49 -23 -14 -7 -26 33 -24 24 2
48 -1 55 -5 25 -15 10 -26 -35 -26 -27 0 -82 -8 -124 -18 -62 -15 -77 -16 -88
-5 -10 11 -7 15 14 23 15 6 32 10 38 10 7 1 1 7 -13 15 -14 8 -20 15 -15 15 6
0 4 4 -4 9 -11 7 -11 13 0 32 8 16 14 20 17 10 2 -7 -2 -17 -9 -22 -8 -5 -9
-9 -3 -9 5 0 15 5 22 12 9 9 13 7 18 -5 3 -9 10 -17 15 -17 6 0 5 8 0 19 -8
15 -7 20 6 25 21 9 31 -3 13 -14 -12 -8 -10 -10 9 -10 20 0 21 -2 11 -15 -10
-12 -10 -15 1 -15 8 0 19 8 25 18 18 28 -4 48 -49 47 -23 -1 -33 1 -25 6 21
14 65 10 82 -7z m-4349 -64 c3 -5 -3 -10 -14 -10 -12 0 -21 -4 -21 -8 0 -4
-23 -16 -51 -26 -35 -13 -47 -22 -40 -29 7 -7 22 -7 49 1 22 7 52 12 68 12 22
-1 11 -7 -40 -25 -38 -14 -80 -32 -93 -40 -17 -12 -23 -12 -23 -3 0 7 -3 22
-6 34 -8 30 24 62 86 84 63 22 76 24 85 10z m2813 -2 c-6 -18 -28 -21 -28 -4
0 9 7 16 16 16 9 0 14 -5 12 -12z m1199 -2 c12 -11 -2 -13 -67 -8 -36 3 -57 8
-47 11 21 8 106 6 114 -3z m-1391 -12 c-18 -17 -26 -18 -26 -1 0 7 9 13 20 14
18 2 18 0 6 -13z m-36 -24 c0 -5 -5 -10 -11 -10 -5 0 -7 5 -4 10 3 6 8 10 11
10 2 0 4 -4 4 -10z m152 -33 l24 -42 -43 1 c-50 2 -66 -12 -30 -25 17 -7 45
-4 93 9 38 10 76 20 84 22 12 2 15 -9 15 -64 0 -68 -9 -93 -24 -69 -7 11 -10
11 -14 0 -4 -12 -7 -11 -16 1 -9 12 -11 10 -11 -12 0 -29 2 -28 -108 -43 -48
-6 -114 8 -130 28 -6 7 -17 44 -25 82 -12 57 -12 71 -1 82 7 7 20 10 28 7 9
-3 22 -2 29 4 6 5 25 12 42 16 16 4 35 16 43 27 7 10 15 19 17 19 2 0 14 -19
27 -43z m96 -13 c6 -2 12 1 12 6 0 6 7 10 16 10 14 0 14 -3 4 -15 -19 -23
-100 -18 -100 6 0 8 29 5 68 -7z m-1358 -19 c-7 -8 -19 -15 -26 -15 -8 0 -14
7 -14 15 0 10 10 15 26 15 22 0 25 -2 14 -15z m621 -24 c-13 -24 -46 -30 -38
-7 4 10 1 13 -7 10 -8 -3 -17 -1 -20 5 -8 12 55 32 67 21 5 -4 4 -17 -2 -29z
m-1696 -13 c32 -14 28 -29 -10 -40 -35 -9 -38 -7 -29 26 7 30 5 29 39 14z
m905 -9 c0 -5 -1 -10 -2 -11 -1 -2 4 -13 10 -25 16 -29 -5 -44 -25 -18 -19 27
-18 76 2 69 8 -4 15 -10 15 -15z m-1415 -29 c-3 -5 -10 -10 -16 -10 -5 0 -9 5
-9 10 0 6 7 10 16 10 8 0 12 -4 9 -10z m3583 -39 c4 -28 -13 -20 -21 9 -3 14
-1 20 6 17 7 -2 14 -14 15 -26z m-3060 -3 c-21 -41 -18 -58 14 -58 15 0 28 -4
28 -8 0 -14 -39 -46 -47 -39 -3 4 -13 1 -21 -5 -11 -10 -17 -9 -27 5 -7 9 -18
17 -25 17 -7 0 -10 7 -6 16 3 9 6 27 6 40 0 17 6 24 20 24 11 0 20 4 20 9 0 8
17 16 43 20 4 0 2 -9 -5 -21z m915 -33 c20 -10 37 -24 37 -31 0 -11 -54 -119
-67 -133 -2 -3 -9 1 -15 7 -7 7 -8 12 -2 12 5 0 8 17 6 39 -2 22 1 42 8 46 8
5 8 10 0 20 -13 16 -24 68 -13 63 4 -2 25 -12 46 -23z m-1647 6 c-3 -5 1 -12
10 -15 24 -9 36 -7 28 6 -4 7 -3 8 5 4 7 -4 10 -13 8 -19 -2 -7 2 -18 10 -25
20 -20 16 -30 -11 -25 -17 4 -23 10 -19 21 4 9 2 13 -4 9 -6 -4 -14 -1 -17 5
-4 9 -5 8 -5 -2 2 -31 -2 -39 -19 -37 -16 1 -17 6 -8 44 5 24 13 43 18 43 5 0
7 -4 4 -9z m479 0 c-15 -13 -65 -23 -65 -12 0 5 12 12 28 14 15 2 31 5 37 6 6
0 6 -2 0 -8z m3305 -35 c0 -12 -5 -7 -19 24 -11 24 -11 24 3 6 9 -11 16 -24
16 -30z m-1133 -3 c-3 -10 -5 -4 -5 12 0 17 2 24 5 18 2 -7 2 -21 0 -30z
m-2268 3 l22 -23 -28 -6 c-32 -6 -59 13 -50 37 9 23 30 20 56 -8z m3381 -7 c0
-5 -4 -9 -10 -9 -5 0 -10 6 -10 13 0 9 -2 9 -8 -1 -11 -16 -42 -5 -36 13 4 10
12 11 35 3 16 -5 29 -14 29 -19z m-2186 -47 c4 -41 2 -61 -4 -57 -6 3 -10 34
-10 67 0 76 5 72 14 -10z m-1459 11 l-8 -38 -9 28 c-7 20 -6 32 2 43 18 21 23
10 15 -33z m436 -20 c0 -21 5 -50 10 -65 8 -20 7 -32 -6 -55 -9 -15 -14 -21
-12 -12 3 9 -1 16 -9 16 -17 0 -17 -1 1 -37 17 -33 14 -38 -9 -14 -9 8 -16 29
-16 45 0 50 -20 22 -21 -29 -1 -26 -3 -39 -6 -29 -5 20 -29 23 -36 5 -3 -7 -6
-3 -6 8 -1 12 5 24 12 27 6 2 18 25 26 51 7 25 17 46 22 46 5 0 11 11 15 25 3
14 10 25 15 25 5 0 9 10 9 22 0 12 3 19 6 15 3 -3 6 -23 5 -44z m4896 35 c-31
-82 -59 -180 -54 -192 6 -14 10 -14 44 0 21 9 63 34 94 55 38 27 62 38 75 33
13 -4 15 -3 6 3 -9 7 3 22 42 56 30 26 57 47 61 47 7 0 -13 -39 -58 -112 -16
-27 -34 -45 -40 -41 -6 3 -7 1 -3 -5 7 -11 -31 -77 -66 -116 -10 -11 -18 -23
-18 -26 0 -4 -11 -20 -25 -36 -14 -16 -25 -32 -25 -35 0 -11 -116 -160 -172
-222 -29 -31 -58 -55 -65 -53 -7 3 -10 0 -8 -7 6 -16 -72 -70 -87 -61 -7 5 -8
3 -3 -6 6 -10 4 -12 -9 -7 -10 4 -15 3 -11 -3 3 -5 -3 -14 -14 -19 -25 -14
-34 -14 -25 0 4 7 1 10 -7 7 -8 -3 -13 -11 -11 -17 1 -6 -2 -11 -8 -11 -5 0
-11 7 -11 15 -2 26 -4 29 -32 77 -15 26 -27 52 -27 58 0 8 -8 10 -22 5 -13 -4
-31 -7 -41 -6 -9 0 -15 -4 -12 -10 4 -5 1 -9 -6 -9 -7 0 -9 8 -6 21 4 15 2 19
-9 15 -30 -11 -11 10 32 37 35 23 48 26 59 17 7 -6 11 -17 9 -25 -5 -13 34
-103 62 -139 10 -14 17 -17 25 -9 8 8 5 22 -9 51 -14 29 -16 39 -6 35 8 -3 14
-8 14 -12 0 -4 18 -8 40 -9 45 -3 50 7 21 47 -11 15 -21 34 -23 41 -5 21 -31
50 -45 50 -18 0 -16 -31 3 -58 8 -12 13 -22 11 -22 -8 0 -97 52 -101 59 -7 11
86 75 106 73 10 0 20 3 23 9 3 5 -1 6 -10 3 -9 -4 20 30 64 75 77 79 172 219
232 344 13 26 29 47 37 47 8 0 12 -6 9 -12z m-5087 -28 c13 -8 13 -10 -2 -10
-9 0 -20 5 -23 10 -8 13 5 13 25 0z m-330 -13 c0 -4 11 -5 24 -3 18 3 25 -1
30 -17 3 -12 3 -23 1 -25 -2 -2 -28 2 -57 9 -29 7 -61 12 -70 10 -22 -3 -23 8
-3 23 17 12 75 15 75 3z m2459 -34 c-13 -15 -12 -16 9 -11 31 8 28 0 -5 -13
-35 -13 -52 9 -20 27 30 17 31 16 16 -3z m122 -36 c-10 -9 -11 -8 -5 6 3 10 9
15 12 12 3 -3 0 -11 -7 -18z m-145 -63 c15 3 31 1 34 -5 5 -6 15 -6 33 0 22 9
27 8 27 -5 0 -9 -5 -12 -11 -8 -6 3 -14 3 -18 -2 -21 -30 -91 -45 -91 -20 0
16 -27 29 -41 20 -5 -3 -9 6 -9 21 0 25 1 25 24 10 14 -9 35 -14 52 -11z m298
11 c11 -8 28 -15 38 -15 10 0 18 -4 18 -10 0 -19 55 -60 72 -54 23 7 37 -24
17 -37 -22 -13 -49 -11 -49 5 0 10 -9 14 -26 12 -26 -3 -47 -23 -38 -38 3 -4
0 -9 -5 -9 -22 -3 -27 -5 -47 -19 -11 -8 -23 -23 -27 -32 -6 -16 -27 -26 -27
-13 0 3 16 27 35 54 19 26 35 53 35 60 0 21 -31 11 -40 -14 -5 -14 -21 -29
-34 -35 -13 -5 -27 -15 -30 -22 -3 -7 -3 -2 0 12 6 24 13 36 50 87 14 20 14
21 -4 16 -11 -2 -25 -16 -31 -29 -6 -13 -18 -24 -26 -24 -9 0 -14 -4 -10 -9 3
-5 1 -12 -5 -16 -6 -4 -8 -11 -5 -16 4 -5 -1 -12 -10 -16 -10 -3 -21 0 -25 7
-7 11 -28 11 -112 1 -56 -6 -155 -16 -218 -21 -63 -6 -162 -17 -220 -25 -148
-21 -285 -24 -285 -7 0 10 21 15 80 17 44 2 123 10 175 18 52 9 131 19 175 23
99 8 125 17 125 44 0 32 20 33 79 5 29 -15 63 -24 75 -22 16 3 8 10 -36 31
-32 15 -58 28 -58 29 0 1 11 2 24 2 13 0 22 -3 20 -7 -2 -4 6 -10 18 -14 13
-3 34 -14 48 -24 35 -24 130 -14 145 15 23 45 49 77 74 90 33 18 41 18 65 0z
m-153 -34 c-7 -5 -11 -13 -7 -19 4 -6 -2 -8 -14 -5 -30 8 -25 33 8 33 19 0 23
-3 13 -9z m-1121 -21 c0 -5 -4 -10 -9 -10 -5 0 -19 -16 -31 -35 -24 -38 -21
-64 11 -94 20 -18 20 -18 -3 -17 -49 2 -64 94 -23 139 26 27 55 36 55 17z m73
-6 c-2 -6 1 -15 8 -20 8 -4 10 -3 5 4 -4 7 -3 12 2 12 5 0 14 -11 20 -25 12
-27 32 -31 63 -14 49 26 89 -31 50 -70 -21 -21 -21 -21 -31 0 -14 25 -30 16
-30 -17 0 -17 -8 -28 -26 -36 -19 -9 -24 -18 -21 -35 7 -39 -19 -26 -36 18
-10 25 -20 38 -27 34 -8 -5 -7 -12 4 -24 8 -9 19 -30 25 -46 10 -28 10 -29 -4
-11 -8 11 -15 16 -15 10 -1 -22 -40 41 -40 65 0 26 44 71 69 71 5 0 12 7 15
16 3 8 2 12 -4 9 -6 -3 -10 1 -10 9 0 9 -4 16 -8 16 -5 0 -14 11 -19 23 -9 18
-8 24 2 24 7 0 11 -6 8 -13z m2699 1 c313 -54 595 -296 677 -581 20 -68 41
-206 41 -273 0 -81 -27 -264 -46 -309 -17 -42 -24 -38 -90 57 -117 165 -208
221 -293 176 -65 -33 -145 -167 -212 -353 -12 -34 -27 -61 -33 -59 -23 7 -60
100 -118 292 -11 39 -25 81 -30 94 -7 18 -4 29 12 46 26 28 25 40 -5 67 -14
12 -25 27 -25 33 0 21 111 153 149 178 20 13 55 34 79 46 l42 21 0 60 c0 77 8
95 71 164 74 81 57 88 -71 31 -120 -53 -183 -97 -235 -168 -36 -48 -115 -203
-115 -225 0 -6 -4 -13 -9 -16 -5 -4 -28 33 -51 81 -85 178 -150 254 -268 313
-96 47 -244 102 -260 95 -12 -4 6 -27 71 -93 90 -91 131 -159 145 -243 7 -41
7 -42 86 -71 88 -32 133 -62 190 -125 l38 -43 -48 -21 c-27 -11 -71 -30 -98
-40 -70 -28 -147 -82 -185 -129 -18 -23 -55 -89 -83 -148 -27 -59 -57 -122
-66 -139 -30 -60 -3 -59 74 2 122 97 164 121 229 131 l59 9 7 40 c4 22 12 53
18 68 11 27 107 137 121 137 4 0 14 -39 23 -87 43 -222 55 -391 37 -510 l-12
-84 -32 7 c-75 16 -239 7 -343 -20 -56 -14 -111 -26 -123 -26 -52 0 -255 247
-305 370 -145 360 -97 706 137 977 110 129 321 240 515 273 80 13 245 11 335
-5z m-1666 -15 c8 0 14 -5 14 -11 0 -12 -55 -3 -80 13 -10 6 -5 8 19 4 18 -3
40 -6 47 -6z m-2057 -95 c0 -5 -8 6 -19 25 l-18 35 -5 -50 c-3 -40 -4 -37 -4
19 l0 70 23 -45 c13 -24 23 -48 23 -54z m2101 -35 c-20 -12 -33 -1 -19 16 9
11 15 12 23 4 8 -8 7 -13 -4 -20z m-930 -22 c0 -18 -2 -20 -9 -8 -6 8 -7 18
-5 22 9 14 14 9 14 -14z m-1119 -33 c7 -13 3 -12 -10 5 -11 14 -21 30 -21 35
0 11 14 -7 31 -40z m-73 -125 c-1 -28 -2 -25 -8 15 -5 28 -8 66 -8 85 1 28 2
25 8 -15 5 -27 8 -66 8 -85z m160 83 c7 -7 26 -13 42 -13 16 0 31 6 34 13 5 9
7 9 12 -1 3 -6 11 -9 16 -6 7 4 8 2 4 -4 -4 -7 -14 -12 -22 -12 -8 0 -14 -4
-14 -10 0 -5 7 -7 15 -4 8 4 15 1 15 -6 0 -8 -9 -10 -25 -6 -14 4 -46 9 -72
13 -68 9 -47 -12 27 -26 33 -7 60 -15 60 -19 0 -4 -7 -45 -17 -90 -13 -67 -20
-86 -37 -92 -12 -5 -15 -9 -8 -9 7 -1 10 -5 7 -11 -3 -5 -20 -8 -38 -5 -108
15 -147 17 -147 8 0 -6 23 -13 51 -16 29 -4 54 -8 56 -11 2 -2 -7 -32 -22 -65
-26 -62 -26 -81 1 -81 8 0 14 -4 14 -9 0 -11 -44 0 -81 19 -13 7 -24 9 -26 4
-9 -25 -21 -33 -41 -27 -24 6 -29 27 -10 39 8 5 9 2 5 -9 -5 -14 -3 -15 13 -5
17 11 18 22 2 24 -27 3 -62 18 -62 26 0 5 -5 6 -11 2 -8 -4 -9 3 -4 24 6 29 4
31 -30 38 -35 6 -37 8 -31 37 3 17 13 44 21 61 9 16 18 47 21 68 4 23 12 38
20 38 17 0 18 -12 3 -27 -25 -25 22 -96 51 -78 17 10 11 25 -10 25 -11 0 -20
4 -20 9 0 14 36 2 59 -20 26 -24 31 -24 31 1 0 11 -4 20 -10 20 -5 0 -10 4
-10 10 0 5 8 6 17 3 13 -5 15 -2 10 11 -4 9 -3 15 2 11 5 -3 15 23 23 57 12
56 16 63 36 60 12 -2 22 2 22 7 0 6 -7 11 -15 11 -8 0 -15 5 -15 10 0 6 7 10
15 10 8 0 15 4 15 8 0 13 43 9 58 -5z m4322 -270 c19 -39 41 -78 49 -87 7 -9
11 -23 7 -31 -3 -9 -2 -14 3 -11 4 3 14 -7 20 -22 12 -24 10 -29 -18 -54 -47
-42 -58 -37 -65 30 -8 64 -18 103 -48 179 -19 51 -18 78 5 70 7 -2 28 -35 47
-74z m-4172 -12 c5 -14 42 -15 42 -1 0 11 30 1 48 -16 6 -7 12 -17 12 -22 0
-5 11 -14 25 -20 20 -9 25 -18 23 -41 -1 -21 -7 -28 -18 -26 -13 2 -15 -3 -12
-25 5 -32 -12 -47 -34 -29 -13 10 -17 10 -24 -2 -5 -8 -14 -14 -19 -14 -6 0
-16 -9 -24 -19 -8 -11 -19 -16 -25 -12 -17 10 -15 36 2 36 8 0 16 10 18 23 2
17 9 22 31 20 21 -1 27 2 23 12 -3 8 -2 14 2 14 27 -4 32 1 20 21 -17 27 -24
25 -37 -7 l-11 -28 4 28 c4 31 -8 36 -24 10 -9 -14 -10 -11 -4 16 5 29 4 32
-8 21 -8 -8 -14 -23 -14 -34 1 -13 -6 -22 -19 -24 -19 -3 -19 -2 -1 9 15 9 16
13 5 20 -21 13 -29 11 -30 -8 0 -11 -5 -5 -11 12 -6 17 -14 32 -17 35 -11 9
-9 42 2 56 14 15 70 11 75 -5z m-560 -95 c11 -10 10 -13 -5 -13 -29 -1 -93 19
-93 29 0 13 82 -1 98 -16z m100 -19 c6 0 12 -6 12 -14 0 -10 -5 -11 -19 -3
-11 5 -29 10 -40 10 -12 0 -21 5 -21 11 0 7 10 9 28 4 15 -4 33 -8 40 -8z
m1262 -90 c0 -5 -12 -6 -27 -3 -18 4 -23 3 -14 -2 18 -13 -15 -65 -38 -59 -9
3 -22 6 -30 8 -7 2 -16 -2 -18 -9 -3 -8 4 -16 16 -19 26 -7 27 -19 4 -31 -27
-14 -87 10 -91 36 -3 21 30 48 47 37 5 -3 7 4 4 15 -5 19 -3 20 62 33 36 7 85
4 85 -6z m80 -7 c0 -5 -4 -10 -10 -10 -5 0 -10 5 -10 10 0 6 5 10 10 10 6 0
10 -4 10 -10z m3 -452 c7 -18 -16 -48 -36 -48 -7 1 -1 10 13 22 16 14 19 19 8
15 -15 -5 -18 0 -18 31 0 33 1 35 13 17 8 -11 16 -28 20 -37z m522 32 c11 -5
14 -9 7 -9 -7 -1 -10 -6 -6 -12 4 -7 2 -10 -5 -8 -7 3 -11 9 -9 14 2 5 -10 13
-27 16 -26 6 -27 7 -5 7 14 0 34 -3 45 -8z m933 -27 c33 6 41 4 44 -11 8 -30
-2 -45 -18 -25 -11 14 -13 15 -14 3 0 -13 -1 -13 -10 0 -8 13 -11 12 -25 -5
-16 -20 -16 -19 -5 3 9 18 8 22 -5 22 -10 0 -13 -5 -9 -12 5 -7 3 -8 -6 -3 -7
4 -16 2 -20 -5 -6 -9 -12 -9 -29 1 -11 8 -21 17 -21 20 0 12 65 26 71 16 4 -6
25 -7 47 -4z m-893 -13 c3 -6 -1 -7 -9 -4 -18 7 -21 14 -7 14 6 0 13 -4 16
-10z m120 -20 c3 -6 -1 -7 -9 -4 -18 7 -21 14 -7 14 6 0 13 -4 16 -10z m135 0
c0 -5 -4 -10 -9 -10 -6 0 -13 5 -16 10 -3 6 1 10 9 10 9 0 16 -4 16 -10z m90
-37 c3 -3 -13 -3 -34 -2 -32 3 -41 0 -47 -16 -7 -20 -8 -19 -8 1 -1 11 2 23 5
27 6 6 75 -2 84 -10z m17 -25 c-3 -8 -6 -5 -6 6 -1 11 2 17 5 13 3 -3 4 -12 1
-19z m-922 -90 c-4 -57 -8 -118 -10 -137 -1 -19 2 -50 7 -69 7 -26 6 -38 -6
-51 -18 -19 -22 -46 -6 -36 6 3 10 1 10 -5 0 -7 -5 -10 -12 -8 -15 5 -30 60
-19 68 5 3 3 16 -4 30 -12 22 -13 19 -10 -33 2 -32 -1 -60 -7 -63 -6 -4 -8 1
-3 15 4 12 2 21 -4 21 -6 0 -11 -9 -11 -20 0 -11 -4 -20 -10 -20 -5 0 -8 6 -5
13 2 6 6 37 9 67 2 30 10 91 17 135 6 44 11 88 11 98 0 9 6 17 14 17 8 0 14
10 14 24 0 13 6 27 13 29 6 3 3 6 -8 7 l-20 1 20 9 c11 5 22 9 24 9 2 1 0 -45
-4 -101z m1548 72 c4 -16 -1 -21 -28 -26 -48 -9 -79 -2 -83 20 -3 11 0 16 7
12 6 -4 11 -3 11 3 0 5 11 8 24 7 14 -2 30 0 37 5 17 10 25 4 32 -21z m-274
-11 c9 -26 6 -39 -10 -39 -4 0 -10 7 -13 16 -3 8 -2 12 4 9 5 -3 7 0 4 8 -3 9
-14 12 -30 9 -13 -2 -24 0 -24 5 0 34 57 27 69 -8z m-227 1 c10 0 18 -4 18 -9
0 -5 -8 -7 -17 -5 -10 2 -31 -7 -48 -21 -28 -24 -29 -25 -7 -25 12 0 22 5 22
11 0 8 4 8 13 0 10 -8 17 -7 25 1 9 9 12 8 12 -5 0 -16 -25 -23 -73 -19 -11 1
-15 -3 -12 -9 9 -13 -66 -1 -80 14 -7 7 -6 8 3 3 7 -4 22 -4 34 0 l22 7 -22
17 c-29 24 -28 30 6 30 16 0 37 6 48 14 12 9 23 11 29 5 5 -5 17 -9 27 -9z
m93 -10 c-3 -5 -12 -7 -20 -3 -21 7 -19 13 6 13 11 0 18 -4 14 -10z m59 -17
c33 -2 41 -8 31 -22 -8 -14 -95 -11 -95 3 0 6 -5 4 -10 -4 -7 -11 -10 -12 -10
-2 0 8 9 16 20 19 11 3 20 13 21 22 0 14 1 14 7 1 4 -8 20 -16 36 -17z m206
11 c0 -8 -4 -12 -10 -9 -5 3 -10 10 -10 16 0 5 5 9 10 9 6 0 10 -7 10 -16z
m-69 -21 c13 -16 12 -17 -3 -4 -17 13 -22 21 -14 21 2 0 10 -8 17 -17z m-542
-41 c8 -2 18 3 22 10 6 9 9 6 9 -9 0 -17 -6 -23 -22 -23 -13 0 -54 -7 -93 -16
-95 -22 -155 -27 -155 -15 0 5 15 13 33 16 17 4 47 16 65 27 17 11 32 15 32 9
0 -17 49 -13 67 5 9 8 19 12 22 7 3 -4 12 -9 20 -11z m805 3 c3 -8 1 -15 -3
-15 -5 0 -11 7 -15 15 -3 8 -1 15 3 15 5 0 11 -7 15 -15z m-2314 -106 c0 -6
-4 -7 -10 -4 -13 8 -13 -1 0 -26 6 -11 7 -19 2 -19 -12 0 -22 38 -15 56 5 15
23 9 23 -7z m317 -151 c-3 -7 -5 -2 -5 12 0 14 2 19 5 13 2 -7 2 -19 0 -25z
m340 -80 c-3 -8 -6 -5 -6 6 -1 11 2 17 5 13 3 -3 4 -12 1 -19z"/>
<path d="M5580 5360 c0 -6 11 -8 28 -4 39 10 40 14 4 14 -18 0 -32 -5 -32 -10z"/>
<path d="M5778 5363 c7 -3 16 -2 19 1 4 3 -2 6 -13 5 -11 0 -14 -3 -6 -6z"/>
<path d="M5680 5345 c0 -11 11 -15 40 -15 29 0 40 4 40 15 0 11 -11 15 -40 15
-29 0 -40 -4 -40 -15z"/>
<path d="M6215 5110 c3 -5 8 -10 11 -10 2 0 4 5 4 10 0 6 -5 10 -11 10 -5 0
-7 -4 -4 -10z"/>
<path d="M4603 4793 c43 -2 110 -2 150 0 40 1 5 3 -78 3 -82 0 -115 -2 -72 -3z"/>
<path d="M3083 4733 c9 -2 23 -2 30 0 6 3 -1 5 -18 5 -16 0 -22 -2 -12 -5z"/>
<path d="M2783 4723 c31 -2 83 -2 115 0 31 2 5 3 -58 3 -63 0 -89 -1 -57 -3z"/>
<path d="M4588 4683 c39 -2 105 -2 145 0 39 1 7 3 -73 3 -80 0 -112 -2 -72 -3z"/>
<path d="M4488 4673 c7 -3 16 -2 19 1 4 3 -2 6 -13 5 -11 0 -14 -3 -6 -6z"/>
<path d="M6156 4702 c-2 -4 12 -6 32 -4 56 5 62 10 15 11 -23 1 -44 -3 -47 -7z"/>
<path d="M3008 4623 c17 -2 47 -2 65 0 17 2 3 4 -33 4 -36 0 -50 -2 -32 -4z"/>
<path d="M3128 4623 c6 -2 18 -2 25 0 6 3 1 5 -13 5 -14 0 -19 -2 -12 -5z"/>
<path d="M5642 4310 c0 -14 2 -19 5 -12 2 6 2 18 0 25 -3 6 -5 1 -5 -13z"/>
<path d="M5635 4260 c-7 -12 18 -24 37 -18 8 3 5 9 -9 16 -14 8 -24 9 -28 2z"/>
<path d="M6058 4143 c7 -3 16 -2 19 1 4 3 -2 6 -13 5 -11 0 -14 -3 -6 -6z"/>
<path d="M3043 4103 c15 -2 39 -2 55 0 15 2 2 4 -28 4 -30 0 -43 -2 -27 -4z"/>
<path d="M4398 3773 c7 -3 16 -2 19 1 4 3 -2 6 -13 5 -11 0 -14 -3 -6 -6z"/>
<path d="M2520 3629 c0 -5 5 -7 10 -4 6 3 10 8 10 11 0 2 -4 4 -10 4 -5 0 -10
-5 -10 -11z"/>
<path d="M2550 3632 c0 -4 5 -13 12 -20 7 -7 8 -12 2 -12 -6 0 -18 -6 -28 -13
-17 -13 -16 -15 17 -36 29 -18 40 -20 57 -11 11 6 20 16 20 22 0 6 8 20 17 30
15 17 15 19 -3 33 -20 15 -94 21 -94 7z"/>
<path d="M3745 3540 c3 -5 11 -10 16 -10 6 0 7 5 4 10 -3 6 -11 10 -16 10 -6
0 -7 -4 -4 -10z"/>
<path d="M763 3023 c-4 -9 -1 -19 5 -21 7 -2 12 -11 13 -20 0 -13 2 -13 8 3 5
11 4 23 -2 26 -5 4 -6 12 -3 18 4 6 2 11 -4 11 -6 0 -14 -8 -17 -17z"/>
<path d="M4803 3173 c9 -2 23 -2 30 0 6 3 -1 5 -18 5 -16 0 -22 -2 -12 -5z"/>
<path d="M3197 3073 c-4 -3 -24 -6 -44 -5 -28 1 -34 -1 -23 -8 23 -15 66 -12
80 5 12 14 0 22 -13 8z"/>
<path d="M3353 3026 c4 -10 -11 -15 -68 -18 -69 -5 -105 -18 -105 -39 0 -5 13
-6 29 -3 16 4 32 1 35 -5 8 -13 56 -15 56 -2 0 5 14 11 30 13 17 3 30 0 30 -5
0 -5 6 -4 14 2 11 9 12 18 3 41 -6 17 -15 30 -20 30 -5 0 -7 -6 -4 -14z"/>
<path d="M5583 2642 c-7 -17 35 -149 50 -159 17 -10 30 14 18 35 -14 26 16 66
50 67 48 0 30 21 -40 47 -63 23 -73 24 -78 10z m55 -50 c6 -18 -15 -14 -22 4
-4 10 -1 14 6 12 6 -2 14 -10 16 -16z"/>
<path d="M5472 2478 c-22 -22 -14 -65 20 -97 29 -27 30 -30 15 -46 -19 -18
-22 -41 -8 -50 13 -7 51 43 51 68 0 12 -15 36 -32 54 -27 28 -31 36 -21 52 18
28 -2 42 -25 19z"/>
<path d="M5580 2435 c0 -8 7 -15 15 -15 8 0 15 7 15 15 0 8 -7 15 -15 15 -8 0
-15 -7 -15 -15z"/>
<path d="M5270 2350 c-9 -6 -10 -10 -3 -10 6 0 15 5 18 10 8 12 4 12 -15 0z"/>
<path d="M5275 2310 c3 -5 8 -10 11 -10 2 0 4 5 4 10 0 6 -5 10 -11 10 -5 0
-7 -4 -4 -10z"/>
<path d="M5385 2280 c3 -5 8 -10 11 -10 2 0 4 5 4 10 0 6 -5 10 -11 10 -5 0
-7 -4 -4 -10z"/>
<path d="M5420 2267 c0 -21 11 -27 31 -16 27 14 23 29 -6 29 -14 0 -25 -6 -25
-13z"/>
<path d="M5408 2183 c7 -3 16 -2 19 1 4 3 -2 6 -13 5 -11 0 -14 -3 -6 -6z"/>
<path d="M2704 2676 c-11 -8 -15 -18 -10 -23 5 -4 11 -2 13 5 3 6 8 10 12 8 4
-3 8 1 8 9 0 18 1 18 -23 1z"/>
<path d="M4484 1795 c-9 -22 0 -50 16 -50 21 0 26 51 5 59 -9 3 -18 0 -21 -9z"/>
<path d="M4457 1723 c-13 -13 -7 -32 13 -38 13 -4 20 -15 20 -31 0 -14 7 -27
16 -31 18 -7 36 15 29 34 -2 6 6 13 18 15 14 2 23 11 25 26 3 18 -1 22 -22 22
-19 0 -26 -5 -26 -20 0 -11 -7 -20 -15 -20 -8 0 -14 3 -14 8 4 25 -3 42 -19
42 -10 0 -22 -3 -25 -7z"/>
<path d="M820 2163 c0 -5 8 -9 18 -9 9 0 35 -3 57 -7 25 -4 32 -3 20 2 -33 13
-95 23 -95 14z"/>
<path d="M610 2128 c0 -7 5 -20 11 -28 9 -12 10 -11 6 7 -3 12 0 24 7 27 6 2
3 5 -6 5 -10 1 -18 -5 -18 -11z"/>
<path d="M655 2120 c-3 -6 1 -17 9 -26 15 -14 16 -13 16 10 0 26 -13 35 -25
16z"/>
<path d="M5300 1970 c0 -5 5 -10 11 -10 5 0 7 5 4 10 -3 6 -8 10 -11 10 -2 0
-4 -4 -4 -10z"/>
<path d="M5256 1923 c-6 -14 -5 -15 5 -6 7 7 10 15 7 18 -3 3 -9 -2 -12 -12z"/>
<path d="M1022 2094 c4 -21 22 -23 26 -1 2 10 -3 17 -13 17 -10 0 -15 -6 -13
-16z"/>
<path d="M1112 2078 c6 -18 28 -21 28 -4 0 9 -7 16 -16 16 -9 0 -14 -5 -12
-12z"/>
<path d="M1180 2025 c0 -8 7 -15 15 -15 8 0 15 7 15 15 0 8 -7 15 -15 15 -8 0
-15 -7 -15 -15z"/>
<path d="M1100 1956 c0 -9 5 -16 10 -16 6 0 10 4 10 9 0 6 -4 13 -10 16 -5 3
-10 -1 -10 -9z"/>
<path d="M1150 1960 c0 -5 7 -10 15 -10 8 0 15 5 15 10 0 6 -7 10 -15 10 -8 0
-15 -4 -15 -10z"/>
<path d="M1941 1304 c0 -11 3 -14 6 -6 3 7 2 16 -1 19 -3 4 -6 -2 -5 -13z"/>
<path d="M1880 1044 c0 -8 5 -12 10 -9 6 3 10 10 10 16 0 5 -4 9 -10 9 -5 0
-10 -7 -10 -16z"/>
<path d="M698 5433 c7 -3 16 -2 19 1 4 3 -2 6 -13 5 -11 0 -14 -3 -6 -6z"/>
<path d="M1615 5240 c-3 -5 1 -10 9 -10 8 0 18 5 21 10 3 6 -1 10 -9 10 -8 0
-18 -4 -21 -10z"/>
<path d="M1475 5233 c-167 -6 -545 -24 -675 -33 -74 -5 -243 -16 -375 -24
-132 -9 -282 -18 -332 -22 l-93 -6 0 -364 0 -364 118 5 c137 6 752 25 816 25
40 0 44 2 38 22 -3 14 -2 19 6 14 7 -4 12 -13 12 -21 0 -15 4 -15 430 3 l155
7 3 100 c5 136 -9 665 -17 663 -3 -1 -42 -3 -86 -5z"/>
<path d="M1811 4351 c-21 -14 -26 -61 -6 -61 9 0 18 -6 21 -13 6 -17 59 -10
74 8 6 8 10 26 8 42 -3 25 -7 28 -43 31 -22 1 -46 -2 -54 -7z"/>
<path d="M1310 4146 c15 -15 32 -19 60 -17 19 1 -36 31 -58 31 -14 0 -14 -2
-2 -14z"/>
<path d="M6241 4034 c0 -11 3 -14 6 -6 3 7 2 16 -1 19 -3 4 -6 -2 -5 -13z"/>
<path d="M4140 3970 c0 -13 40 -13 60 0 11 7 5 10 -22 10 -21 0 -38 -4 -38
-10z"/>
<path d="M6328 734 c-5 -5 55 -160 67 -172 3 -3 5 36 5 86 l0 92 -33 0 c-19 0
-36 -2 -39 -6z"/>
<path d="M5920 573 c-30 -20 -91 -55 -135 -78 -44 -23 -110 -59 -147 -79 l-68
-37 0 -61 c0 -43 6 -70 20 -92 l19 -32 -24 -27 c-15 -15 -25 -38 -25 -56 0
-16 -4 -32 -8 -35 -4 -2 -7 12 -5 32 2 27 1 32 -5 18 -8 -19 -9 -19 -16 0 -8
18 -9 17 -17 -5 -5 -13 -12 -22 -14 -19 -3 3 -1 18 5 33 9 24 8 26 -3 16 -12
-9 -15 -3 -21 37 -3 26 -3 70 0 96 6 40 4 48 -7 43 -8 -3 -39 -13 -69 -23 -30
-9 -89 -29 -130 -45 -145 -55 -196 -70 -310 -94 -63 -13 -146 -34 -185 -45
-38 -12 -90 -24 -115 -27 -73 -7 -478 -63 -565 -77 l-80 -14 193 -1 c122 -1
192 3 192 9 0 13 37 13 45 0 4 -6 291 -10 818 -9 447 0 805 3 797 6 -8 3 -23
12 -32 21 -14 11 -21 12 -32 3 -12 -10 -15 -4 -20 36 -8 61 -8 75 3 208 23
288 25 335 10 335 -8 0 -39 -17 -69 -37z m-447 -458 c-3 -9 -8 -14 -10 -11 -3
3 -2 9 2 15 9 16 15 13 8 -4z m-743 -40 c0 -8 -4 -15 -10 -15 -5 0 -10 7 -10
15 0 8 5 15 10 15 6 0 10 -7 10 -15z"/>
</g>
</svg>
